<svg width="155" height="90" viewBox="0 0 155 90" fill="none" xmlns="http://www.w3.org/2000/svg">
<path d="M58.6308 40.1025C58.2638 39.98 57.4891 39.8983 56.7144 39.8983C54.3901 39.8983 51.9028 41.783 51.9028 44.1096V55.2048H46.6021V35.4084H51.699V37.4085C52.8814 35.939 55.0424 35.0002 57.4483 35.0002C58.0498 35.0046 58.65 35.0592 59.2425 35.1635L58.6308 40.1025Z" fill="white"/>
<path d="M64.6244 25C66.5408 25 68.0903 26.4694 68.0903 28.3879C68.0903 30.3063 66.5409 31.7756 64.6244 31.7756C62.7079 31.7756 61.1584 30.3063 61.1584 28.3879C61.1584 26.4694 62.708 25 64.6244 25ZM67.2748 55.2049H61.974V35.4085H67.2748V55.2048V55.2049Z" fill="white"/>
<path d="M82.9331 34.9993C80.8294 34.9726 78.7821 35.6805 77.1432 37.0012V35.4083H72.0452V65H77.3464V53.8174C78.854 55.0096 80.7267 55.6441 82.6477 55.6137C85.5837 55.6137 88.3965 54.3065 90.1499 52.2656C91.7001 50.4693 92.6363 48.0215 92.6363 45.327C92.6363 39.4901 88.3144 34.9993 82.9331 34.9993ZM82.2888 50.7961C78.9961 50.7961 76.8319 48.5215 76.8319 45.3443C76.8319 42.1672 78.9961 39.8926 82.2888 39.8926C85.0995 39.8926 87.3783 42.3339 87.3783 45.3443C87.3783 48.3548 85.0995 50.7961 82.2888 50.7961Z" fill="white"/>
<path d="M124.809 55.2048H119.508V26.2245H124.809V55.2049V55.2048Z" fill="white"/>
<path d="M146.42 52.0618C144.503 54.3476 141.363 55.613 138.305 55.613C132.393 55.613 127.948 51.5313 127.948 45.3271C127.948 39.8167 131.7 35.0002 137.571 35.0002C143.035 35.0002 146.909 39.6125 146.909 45.1229C146.912 45.6289 146.871 46.1343 146.787 46.6332H133.086C133.371 49.4087 135.614 51.3271 138.428 51.3271C140.67 51.3271 142.464 50.0618 143.402 49.0414L146.42 52.0618ZM141.486 42.7556C141.323 41.0004 139.733 39.2861 137.571 39.2861C135.369 39.2861 133.575 40.9597 133.331 42.7556H141.486Z" fill="white"/>
<path d="M106.665 34.9992C104.561 34.9726 102.514 35.6805 100.875 37.0012V35.4083H95.7769V65H101.078V53.8173C102.586 55.0095 104.458 55.6441 106.379 55.6137C109.315 55.6137 112.128 54.3064 113.882 52.2656C115.432 50.4692 116.368 48.0215 116.368 45.327C116.368 39.49 112.046 34.9992 106.665 34.9992ZM106.021 50.7961C102.728 50.7961 100.564 48.5214 100.564 45.3443C100.564 42.1672 102.728 39.8925 106.021 39.8925C108.831 39.8925 111.11 42.3338 111.11 45.3443C111.11 48.3547 108.831 50.7961 106.021 50.7961Z" fill="white"/>
<path d="M35.6742 47.9925C34.4774 47.3007 33.1296 47.1002 31.7946 47.0536C30.6745 47.0144 29.0035 46.2959 29.0035 44.2563C29.0035 42.7367 30.2341 41.5136 31.7952 41.4591C33.1301 41.4124 34.4777 41.2116 35.6742 40.5201C36.749 39.899 37.6415 39.0056 38.262 37.9297C38.8825 36.8538 39.2092 35.6334 39.2092 34.3911C39.2092 33.1488 38.8825 31.9283 38.2619 30.8525C37.6414 29.7766 36.7489 28.8832 35.6741 28.2621C34.5993 27.6409 33.3802 27.3139 32.1391 27.314C30.8981 27.314 29.6789 27.641 28.6042 28.2622C27.5294 28.8834 26.6369 29.7768 26.0164 30.8527C25.396 31.9286 25.0693 33.1491 25.0694 34.3914C25.0694 35.7626 25.5566 37.0244 26.1782 38.1947C26.701 39.1791 26.9655 41.006 25.1724 42.0423C23.8385 42.8132 22.1737 42.3251 21.3422 40.9929C20.6398 39.8677 19.7919 38.8135 18.6048 38.1273C17.5301 37.5061 16.3109 37.1791 15.0699 37.1791C13.8289 37.1791 12.6097 37.5061 11.5349 38.1273C10.4602 38.7484 9.5677 39.6418 8.94719 40.7177C8.32667 41.7935 8 43.014 8 44.2563C8 45.4986 8.32667 46.719 8.94719 47.7948C9.5677 48.8707 10.4602 49.7641 11.5349 50.3852C12.6097 51.0064 13.8289 51.3334 15.0699 51.3334C16.3109 51.3334 17.5301 51.0064 18.6048 50.3852C19.7916 49.6993 20.6395 48.6457 21.3415 47.5212C21.9179 46.5978 23.3575 45.4208 25.1723 46.4705C26.5042 47.2408 26.9159 48.9285 26.1776 50.3187C25.556 51.4889 25.0695 52.7504 25.0695 54.1214C25.0695 55.3637 25.3961 56.5841 26.0166 57.6599C26.6371 58.7358 27.5296 59.6292 28.6044 60.2503C29.6791 60.8714 30.8983 61.1984 32.1393 61.1984C33.3803 61.1984 34.5994 60.8714 35.6742 60.2503C36.7489 59.6292 37.6414 58.7358 38.2619 57.6599C38.8824 56.5841 39.2091 55.3637 39.2091 54.1214C39.2091 52.8791 38.8824 51.6587 38.2619 50.5829C37.6414 49.507 36.7489 48.6136 35.6742 47.9925Z" fill="white"/>
</svg>
