<svg width="208" height="90" viewBox="0 0 208 90" fill="none" xmlns="http://www.w3.org/2000/svg">
<path fill-rule="evenodd" clip-rule="evenodd" d="M23.1575 64.4012C33.8731 67.0731 44.7248 60.5525 47.396 49.8382C50.0673 39.1234 43.5473 28.2697 32.8324 25.5985C22.1201 22.9273 11.2683 29.4484 8.5983 40.164C5.92583 50.8776 12.4464 61.73 23.1575 64.4012ZM32.4162 37.1046C35.1868 38.059 37.2131 39.4896 36.8149 42.1508C36.5268 44.0989 35.4468 45.0421 34.0131 45.3727C35.9818 46.3977 36.9837 47.9695 36.0293 50.6945C34.845 54.0788 32.0312 54.3645 28.2894 53.6563L27.3813 57.2957L25.1869 56.7488L26.0832 53.1582C25.5144 53.017 24.9332 52.867 24.3344 52.7045L23.4351 56.3119L21.2432 55.7651L22.1513 52.1188C21.9465 52.0664 21.7403 52.0126 21.5328 51.9585C21.221 51.8772 20.9059 51.795 20.587 51.7151L17.7314 51.0032L18.8207 48.4914C18.8207 48.4914 20.4376 48.9214 20.4157 48.8895C21.037 49.0433 21.3126 48.6383 21.4213 48.3683L22.8563 42.6152C22.9101 42.6281 22.9628 42.6413 23.0137 42.6541C23.039 42.6604 23.0639 42.6667 23.0882 42.6727C23.0007 42.6377 22.9213 42.6152 22.8601 42.5996L23.8838 38.4927C23.9107 38.0265 23.7501 37.4384 22.8613 37.2165C22.8957 37.1934 21.2676 36.8202 21.2676 36.8202L21.8513 34.4765L24.8775 35.2321L24.875 35.2434C25.33 35.3565 25.7988 35.464 26.2763 35.5728L27.1757 31.9691L29.3688 32.5159L28.4875 36.049C29.0763 36.1834 29.6688 36.319 30.2456 36.4628L31.1206 32.9528L33.315 33.4997L32.4162 37.1046ZM25.4754 50.1749C27.2659 50.6478 31.1791 51.6814 31.8012 49.1814C32.4387 46.6252 28.6435 45.7736 26.7917 45.358C26.5847 45.3116 26.4021 45.2706 26.2525 45.2333L25.0476 50.0639C25.1703 50.0944 25.3143 50.1324 25.4754 50.1749ZM27.1637 43.1163C28.6566 43.5147 31.9128 44.3837 32.48 42.1114C33.0592 39.7873 29.8944 39.0867 28.3488 38.7445C28.1749 38.706 28.0215 38.6721 27.8963 38.6409L26.8038 43.0221C26.907 43.0478 27.0281 43.0801 27.1637 43.1163Z" fill="white"/>
<path d="M66.6084 37.1009C68.2303 37.1009 69.6315 37.3915 70.809 37.9621C71.9921 38.5383 72.9683 39.3146 73.7514 40.2908C74.5239 41.2721 75.0989 42.4189 75.4702 43.7333C75.8389 45.0514 76.0239 46.4683 76.0239 47.9851C76.0239 50.3151 75.597 52.5163 74.7352 54.5913C73.8733 56.6694 72.7039 58.4719 71.2165 60.0094C69.7302 61.545 67.9753 62.7556 65.9515 63.65C63.9309 64.545 61.7341 64.9925 59.3753 64.9925C59.0703 64.9925 58.5341 64.9837 57.7766 64.9681C57.0191 64.9525 56.1485 64.8743 55.1735 64.7424C54.1923 64.6056 53.1548 64.4031 52.0592 64.1318C50.9642 63.8656 49.9242 63.4925 48.9448 63.0187L57.7022 26.2216L65.5459 25.006L62.4103 38.064C63.0815 37.7615 63.7578 37.5271 64.4328 37.3565C65.1084 37.1884 65.8334 37.1009 66.6084 37.1009ZM60.0291 58.77C61.2103 58.77 62.3234 58.4794 63.369 57.9088C64.4178 57.3375 65.3228 56.5663 66.0809 55.6057C66.839 54.6407 67.439 53.5538 67.8765 52.3395C68.314 51.1251 68.5353 49.8582 68.5353 48.5401C68.5353 46.9208 68.2646 45.6576 67.7252 44.7445C67.1859 43.8352 66.1878 43.3777 64.7384 43.3777C64.2634 43.3777 63.6515 43.4683 62.8928 43.6302C62.1316 43.802 61.4503 44.1589 60.8397 44.6958L57.501 58.5631C57.7022 58.5988 57.8803 58.6325 58.0322 58.6644C58.181 58.6988 58.3453 58.7231 58.5091 58.74C58.6822 58.7594 58.8803 58.7694 59.1197 58.7694C59.3591 58.7694 59.6585 58.77 60.0291 58.77Z" fill="white"/>
<path d="M84.1581 64.2881H76.6663L82.9931 37.6652H90.5361L84.1581 64.2881ZM87.8037 34.4215C86.758 34.4215 85.8099 34.1103 84.9687 33.4865C84.1206 32.8665 83.7006 31.9122 83.7006 30.6259C83.7006 29.9184 83.8443 29.2547 84.1293 28.6284C84.4187 28.0034 84.7968 27.4653 85.2705 27.0078C85.7437 26.5541 86.2918 26.1916 86.9143 25.9185C87.5405 25.6497 88.2068 25.5154 88.9168 25.5154C89.9618 25.5154 90.9049 25.8266 91.7492 26.4503C92.5905 27.0772 93.0136 28.0316 93.0136 29.3109C93.0136 30.0209 92.8705 30.6872 92.583 31.3122C92.2974 31.9372 91.9192 32.4753 91.4455 32.9328C90.9761 33.3871 90.423 33.7484 89.8018 34.019C89.1749 34.2921 88.5111 34.4215 87.8037 34.4215Z" fill="white"/>
<path d="M97.1018 31.0322L104.949 29.8166L103.022 37.664H111.425L109.908 43.8377H101.555L99.3299 53.1501C99.1249 53.9263 99.0087 54.6513 98.9762 55.3251C98.9393 56.0019 99.0249 56.5832 99.2274 57.0725C99.4287 57.5632 99.7906 57.9413 100.316 58.2088C100.838 58.4807 101.586 58.6175 102.567 58.6175C103.376 58.6175 104.163 58.5406 104.924 58.3881C105.681 58.2381 106.448 58.0294 107.224 57.7563L107.783 63.5287C106.77 63.9 105.674 64.2193 104.493 64.4881C103.31 64.7606 101.909 64.8918 100.291 64.8918C97.9631 64.8918 96.1587 64.5462 94.8731 63.8581C93.5894 63.165 92.6819 62.2181 92.1388 61.0194C91.6031 59.825 91.3638 58.4482 91.4306 56.8969C91.5 55.3419 91.7344 53.7076 92.1388 51.9863L97.1018 31.0322Z" fill="white"/>
<path d="M111.095 53.657C111.095 51.3639 111.467 49.2014 112.209 47.177C112.949 45.1508 114.016 43.3789 115.4 41.8583C116.78 40.3452 118.46 39.1465 120.438 38.2665C122.407 37.3915 124.612 36.9503 127.041 36.9503C128.562 36.9503 129.92 37.094 131.115 37.3821C132.315 37.6728 133.4 38.0484 134.382 38.5196L131.798 44.3946C131.123 44.1208 130.423 43.8796 129.698 43.6608C128.973 43.4377 128.088 43.3302 127.042 43.3302C124.541 43.3302 122.564 44.1921 121.093 45.9102C119.627 47.6295 118.889 49.9439 118.889 52.847C118.889 54.5676 119.26 55.9588 120.005 57.0232C120.747 58.0875 122.116 58.6169 124.104 58.6169C125.085 58.6169 126.032 58.5144 126.939 58.3144C127.853 58.1119 128.66 57.8569 129.37 57.5557L129.93 63.5781C128.982 63.9456 127.937 64.2775 126.791 64.5681C125.642 64.8487 124.275 64.9943 122.689 64.9943C120.596 64.9943 118.824 64.6881 117.375 64.085C115.925 63.4725 114.727 62.6594 113.783 61.6294C112.834 60.5969 112.153 59.3913 111.732 58.0076C111.31 56.6251 111.095 55.1726 111.095 53.657Z" fill="white"/>
<path d="M144.376 64.9943C142.588 64.9943 141.035 64.7218 139.718 64.1825C138.404 63.6431 137.316 62.8862 136.455 61.905C135.593 60.9288 134.948 59.7719 134.506 58.4388C134.065 57.1063 133.852 55.6307 133.852 54.0138C133.852 51.9857 134.178 49.9583 134.836 47.9364C135.491 45.9102 136.463 44.0896 137.749 42.4715C139.025 40.8509 140.599 39.5258 142.453 38.4927C144.305 37.4665 146.435 36.9503 148.828 36.9503C150.583 36.9503 152.128 37.2234 153.464 37.7627C154.793 38.3009 155.888 39.064 156.754 40.0402C157.61 41.0215 158.261 42.1733 158.698 43.5083C159.139 44.8383 159.356 46.3177 159.356 47.9358C159.356 49.9576 159.035 51.9851 158.397 54.0132C157.759 56.0313 156.812 57.8563 155.562 59.4782C154.315 61.0963 152.755 62.4206 150.881 63.4494C149.01 64.4781 146.84 64.9943 144.376 64.9943ZM148.121 43.3308C147.01 43.3308 146.028 43.6533 145.188 44.2902C144.344 44.9345 143.635 45.7445 143.064 46.7214C142.486 47.7026 142.058 48.7726 141.769 49.9358C141.482 51.1014 141.341 52.2032 141.341 53.2501C141.341 54.9395 141.614 56.2551 142.149 57.2019C142.693 58.1438 143.668 58.6175 145.086 58.6175C146.201 58.6175 147.178 58.2975 148.023 57.6538C148.862 57.0144 149.571 56.2038 150.147 55.2251C150.721 54.2488 151.152 53.1757 151.442 52.0107C151.725 50.8489 151.869 49.7408 151.869 48.6958C151.869 47.0108 151.598 45.692 151.057 44.7464C150.518 43.8046 149.538 43.3308 148.121 43.3308Z" fill="white"/>
<path d="M167.52 64.2881H160.022L166.349 37.6652H173.895L167.52 64.2881ZM171.16 34.4215C170.115 34.4215 169.167 34.1103 168.327 33.4865C167.484 32.8665 167.06 31.9122 167.06 30.6259C167.06 29.9184 167.206 29.2547 167.491 28.6284C167.777 28.0034 168.157 27.4653 168.631 27.0078C169.102 26.5541 169.655 26.1916 170.276 25.9185C170.899 25.6497 171.565 25.5154 172.272 25.5154C173.32 25.5154 174.266 25.8266 175.109 26.4503C175.952 27.0772 176.377 28.0316 176.377 29.3109C176.377 30.0209 176.226 30.6872 175.943 31.3122C175.66 31.9372 175.279 32.4753 174.807 32.9328C174.332 33.3871 173.786 33.7484 173.164 34.019C172.536 34.2921 171.871 34.4215 171.16 34.4215Z" fill="white"/>
<path d="M179.295 38.8758C179.864 38.7096 180.499 38.5096 181.189 38.2921C181.882 38.0746 182.657 37.8721 183.522 37.6896C184.377 37.5015 185.343 37.349 186.405 37.2309C187.467 37.1102 188.677 37.0515 190.021 37.0515C193.972 37.0515 196.696 38.2021 198.2 40.4965C199.702 42.7908 199.962 45.9308 198.987 49.9107L195.541 64.2856H188L191.34 50.2132C191.543 49.3345 191.703 48.4851 191.822 47.6551C191.941 46.8326 191.934 46.1077 191.795 45.4802C191.662 44.8602 191.348 44.3527 190.861 43.9595C190.367 43.5727 189.62 43.3783 188.607 43.3783C187.63 43.3783 186.636 43.4833 185.622 43.6858L180.711 64.285H173.167L179.295 38.8758Z" fill="white"/>
</svg>
