<svg width="249" height="90" viewBox="0 0 249 90" fill="none" xmlns="http://www.w3.org/2000/svg">
<mask id="path-1-outside-1" maskUnits="userSpaceOnUse" x="51" y="27" width="192" height="35" fill="black">
<rect fill="white" x="51" y="27" width="192" height="35"/>
<path d="M69.1259 51.7734C69.1259 52.1946 68.7756 52.5374 68.3572 52.5374H53.5472C53.9169 56.2205 56.6707 59.5803 60.5435 59.5803C63.1902 59.5803 65.1558 58.5616 66.6348 56.436C66.8489 56.1421 67.17 55.956 67.5787 56.1323C67.8025 56.2303 67.9582 56.436 67.9971 56.6711C68.0361 56.916 67.9679 57.0531 67.8998 57.1902C66.411 59.8056 63.4432 61.0888 60.5338 61.0888C55.5517 61.0888 52 56.6025 52 51.8028C52 47.003 55.5517 42.5168 60.5338 42.5168C65.5158 42.507 69.1162 46.9834 69.1259 51.7734V51.7734ZM67.5398 51.0485C67.2187 47.3655 64.4163 44.0056 60.5435 44.0056C56.6707 44.0056 53.9169 47.3655 53.5472 51.0485H67.5398ZM87.0983 42.8792C87.5265 42.8792 87.8379 43.2514 87.8379 43.6236C87.8379 44.0546 87.5168 44.3681 87.0983 44.3681H83.1282V60.0505C83.1282 60.4227 82.8071 60.7949 82.3887 60.7949C81.9606 60.7949 81.6492 60.4227 81.6492 60.0505V44.3681H77.8348C77.4066 44.3681 77.0953 44.0448 77.0953 43.6236C77.0953 43.2514 77.4164 42.8792 77.8348 42.8792H81.6492V37.1391C81.6492 36.7767 81.8925 36.4436 82.2428 36.3848C82.739 36.3065 83.1282 36.6493 83.1282 37.1195V42.8792H87.0983ZM111.318 50.4608V59.9623C111.318 60.3933 110.948 60.7068 110.578 60.7068C110.15 60.7068 109.839 60.3835 109.839 59.9623V50.4608C109.839 47.2577 108.039 44.0546 104.487 44.0546C99.933 44.0546 97.9674 48.0609 98.2302 52.1652C98.2302 52.273 98.2788 52.7529 98.2788 52.8019V59.9329C98.2788 60.2954 98.0356 60.6284 97.6853 60.6872C97.189 60.7656 96.7998 60.4227 96.7998 59.9525V28.7444C96.7998 28.3722 97.1209 28 97.5393 28C97.9674 28 98.2788 28.3722 98.2788 28.7444V46.4055C99.5535 44.1134 101.83 42.5657 104.477 42.5657C108.827 42.5657 111.318 46.4055 111.318 50.4608V50.4608ZM137.873 51.7734C137.873 52.1946 137.522 52.5374 137.104 52.5374H122.284C122.654 56.2205 125.408 59.5803 129.281 59.5803C131.927 59.5803 133.893 58.5616 135.372 56.436C135.586 56.1421 135.907 55.956 136.316 56.1323C136.54 56.2303 136.695 56.436 136.734 56.6711C136.773 56.916 136.705 57.0531 136.637 57.1902C135.148 59.8056 132.18 61.0888 129.271 61.0888C124.289 61.0888 120.737 56.6025 120.737 51.8028C120.737 47.003 124.289 42.5168 129.271 42.5168C134.263 42.507 137.863 46.9834 137.873 51.7734V51.7734ZM136.277 51.0485C135.956 47.3655 133.153 44.0056 129.281 44.0056C125.408 44.0056 122.654 47.3655 122.284 51.0485H136.277ZM156.049 43.5747C156.049 44.0546 155.787 44.3191 155.359 44.3779C151.009 45.0146 149.053 48.5899 149.053 52.7529V59.884C149.053 60.2464 148.81 60.5794 148.46 60.6382C147.963 60.7166 147.574 60.3737 147.574 59.9036V43.653C147.574 43.2906 147.817 42.9576 148.168 42.8988C148.664 42.8204 149.053 43.1633 149.053 43.6334V46.9443C150.27 44.8676 152.712 42.889 155.252 42.889C155.621 42.8792 156.049 43.1534 156.049 43.5747V43.5747ZM180.376 51.7734C180.376 52.1946 180.026 52.5374 179.607 52.5374H164.797C165.167 56.2205 167.921 59.5803 171.794 59.5803C174.44 59.5803 176.406 58.5616 177.885 56.436C178.099 56.1421 178.42 55.956 178.829 56.1323C179.053 56.2303 179.208 56.436 179.247 56.6711C179.286 56.916 179.218 57.0531 179.15 57.1902C177.661 59.8056 174.693 61.0888 171.784 61.0888C166.802 61.0888 163.25 56.6025 163.25 51.8028C163.25 47.003 166.802 42.5168 171.784 42.5168C176.766 42.507 180.366 46.9834 180.376 51.7734V51.7734ZM178.79 51.0485C178.469 47.3655 175.666 44.0056 171.794 44.0056C167.921 44.0056 165.167 47.3655 164.797 51.0485H178.79V51.0485ZM204.284 43.7608V60.0505C204.284 60.4815 203.914 60.7949 203.545 60.7949C203.116 60.7949 202.805 60.4717 202.805 60.0505V56.9552C201.589 59.4138 199.409 61.1672 196.655 61.1672C192.257 61.1672 189.815 57.3274 189.815 53.2721V43.7216C189.815 43.3494 190.136 42.9771 190.554 42.9771C190.982 42.9771 191.294 43.3494 191.294 43.7216V53.2721C191.294 56.4752 193.094 59.6783 196.646 59.6783C201.628 59.6783 202.795 54.9863 202.795 49.8045V43.7216C202.795 43.2906 203.224 42.8498 203.749 43.0065C204.07 43.1143 204.284 43.4277 204.284 43.7608V43.7608ZM241.747 50.402V59.9525C241.747 60.3835 241.377 60.697 241.008 60.697C240.579 60.697 240.268 60.3737 240.268 59.9525V50.402C240.268 47.1989 238.468 44.0546 234.916 44.0546C230.46 44.0546 228.766 48.8544 228.766 52.5864V59.9525C228.766 60.3835 228.397 60.697 228.027 60.697C227.599 60.697 227.287 60.3737 227.287 59.9525V50.402C227.287 47.1989 225.487 44.0546 221.936 44.0546C217.43 44.0546 215.572 47.6299 215.737 52.3807C215.737 52.4884 215.786 52.704 215.737 52.7529V59.9329C215.737 60.2954 215.494 60.6284 215.134 60.6872C214.638 60.7656 214.248 60.4227 214.248 59.9525V43.653C214.248 43.2906 214.492 42.9576 214.842 42.8988C215.338 42.8204 215.727 43.1633 215.727 43.6334V46.3565C217.002 44.0644 219.279 42.5657 221.926 42.5657C224.942 42.5657 227.278 44.4856 228.231 47.3165C229.448 44.5444 231.832 42.5657 234.906 42.5657C239.256 42.5657 241.747 46.3467 241.747 50.402"/>
</mask>
<path d="M69.1259 51.7734C69.1259 52.1946 68.7756 52.5374 68.3572 52.5374H53.5472C53.9169 56.2205 56.6707 59.5803 60.5435 59.5803C63.1902 59.5803 65.1558 58.5616 66.6348 56.436C66.8489 56.1421 67.17 55.956 67.5787 56.1323C67.8025 56.2303 67.9582 56.436 67.9971 56.6711C68.0361 56.916 67.9679 57.0531 67.8998 57.1902C66.411 59.8056 63.4432 61.0888 60.5338 61.0888C55.5517 61.0888 52 56.6025 52 51.8028C52 47.003 55.5517 42.5168 60.5338 42.5168C65.5158 42.507 69.1162 46.9834 69.1259 51.7734V51.7734ZM67.5398 51.0485C67.2187 47.3655 64.4163 44.0056 60.5435 44.0056C56.6707 44.0056 53.9169 47.3655 53.5472 51.0485H67.5398ZM87.0983 42.8792C87.5265 42.8792 87.8379 43.2514 87.8379 43.6236C87.8379 44.0546 87.5168 44.3681 87.0983 44.3681H83.1282V60.0505C83.1282 60.4227 82.8071 60.7949 82.3887 60.7949C81.9606 60.7949 81.6492 60.4227 81.6492 60.0505V44.3681H77.8348C77.4066 44.3681 77.0953 44.0448 77.0953 43.6236C77.0953 43.2514 77.4164 42.8792 77.8348 42.8792H81.6492V37.1391C81.6492 36.7767 81.8925 36.4436 82.2428 36.3848C82.739 36.3065 83.1282 36.6493 83.1282 37.1195V42.8792H87.0983ZM111.318 50.4608V59.9623C111.318 60.3933 110.948 60.7068 110.578 60.7068C110.15 60.7068 109.839 60.3835 109.839 59.9623V50.4608C109.839 47.2577 108.039 44.0546 104.487 44.0546C99.933 44.0546 97.9674 48.0609 98.2302 52.1652C98.2302 52.273 98.2788 52.7529 98.2788 52.8019V59.9329C98.2788 60.2954 98.0356 60.6284 97.6853 60.6872C97.189 60.7656 96.7998 60.4227 96.7998 59.9525V28.7444C96.7998 28.3722 97.1209 28 97.5393 28C97.9674 28 98.2788 28.3722 98.2788 28.7444V46.4055C99.5535 44.1134 101.83 42.5657 104.477 42.5657C108.827 42.5657 111.318 46.4055 111.318 50.4608V50.4608ZM137.873 51.7734C137.873 52.1946 137.522 52.5374 137.104 52.5374H122.284C122.654 56.2205 125.408 59.5803 129.281 59.5803C131.927 59.5803 133.893 58.5616 135.372 56.436C135.586 56.1421 135.907 55.956 136.316 56.1323C136.54 56.2303 136.695 56.436 136.734 56.6711C136.773 56.916 136.705 57.0531 136.637 57.1902C135.148 59.8056 132.18 61.0888 129.271 61.0888C124.289 61.0888 120.737 56.6025 120.737 51.8028C120.737 47.003 124.289 42.5168 129.271 42.5168C134.263 42.507 137.863 46.9834 137.873 51.7734V51.7734ZM136.277 51.0485C135.956 47.3655 133.153 44.0056 129.281 44.0056C125.408 44.0056 122.654 47.3655 122.284 51.0485H136.277ZM156.049 43.5747C156.049 44.0546 155.787 44.3191 155.359 44.3779C151.009 45.0146 149.053 48.5899 149.053 52.7529V59.884C149.053 60.2464 148.81 60.5794 148.46 60.6382C147.963 60.7166 147.574 60.3737 147.574 59.9036V43.653C147.574 43.2906 147.817 42.9576 148.168 42.8988C148.664 42.8204 149.053 43.1633 149.053 43.6334V46.9443C150.27 44.8676 152.712 42.889 155.252 42.889C155.621 42.8792 156.049 43.1534 156.049 43.5747V43.5747ZM180.376 51.7734C180.376 52.1946 180.026 52.5374 179.607 52.5374H164.797C165.167 56.2205 167.921 59.5803 171.794 59.5803C174.44 59.5803 176.406 58.5616 177.885 56.436C178.099 56.1421 178.42 55.956 178.829 56.1323C179.053 56.2303 179.208 56.436 179.247 56.6711C179.286 56.916 179.218 57.0531 179.15 57.1902C177.661 59.8056 174.693 61.0888 171.784 61.0888C166.802 61.0888 163.25 56.6025 163.25 51.8028C163.25 47.003 166.802 42.5168 171.784 42.5168C176.766 42.507 180.366 46.9834 180.376 51.7734V51.7734ZM178.79 51.0485C178.469 47.3655 175.666 44.0056 171.794 44.0056C167.921 44.0056 165.167 47.3655 164.797 51.0485H178.79V51.0485ZM204.284 43.7608V60.0505C204.284 60.4815 203.914 60.7949 203.545 60.7949C203.116 60.7949 202.805 60.4717 202.805 60.0505V56.9552C201.589 59.4138 199.409 61.1672 196.655 61.1672C192.257 61.1672 189.815 57.3274 189.815 53.2721V43.7216C189.815 43.3494 190.136 42.9771 190.554 42.9771C190.982 42.9771 191.294 43.3494 191.294 43.7216V53.2721C191.294 56.4752 193.094 59.6783 196.646 59.6783C201.628 59.6783 202.795 54.9863 202.795 49.8045V43.7216C202.795 43.2906 203.224 42.8498 203.749 43.0065C204.07 43.1143 204.284 43.4277 204.284 43.7608V43.7608ZM241.747 50.402V59.9525C241.747 60.3835 241.377 60.697 241.008 60.697C240.579 60.697 240.268 60.3737 240.268 59.9525V50.402C240.268 47.1989 238.468 44.0546 234.916 44.0546C230.46 44.0546 228.766 48.8544 228.766 52.5864V59.9525C228.766 60.3835 228.397 60.697 228.027 60.697C227.599 60.697 227.287 60.3737 227.287 59.9525V50.402C227.287 47.1989 225.487 44.0546 221.936 44.0546C217.43 44.0546 215.572 47.6299 215.737 52.3807C215.737 52.4884 215.786 52.704 215.737 52.7529V59.9329C215.737 60.2954 215.494 60.6284 215.134 60.6872C214.638 60.7656 214.248 60.4227 214.248 59.9525V43.653C214.248 43.2906 214.492 42.9576 214.842 42.8988C215.338 42.8204 215.727 43.1633 215.727 43.6334V46.3565C217.002 44.0644 219.279 42.5657 221.926 42.5657C224.942 42.5657 227.278 44.4856 228.231 47.3165C229.448 44.5444 231.832 42.5657 234.906 42.5657C239.256 42.5657 241.747 46.3467 241.747 50.402" fill="white"/>
<path d="M53.5472 52.5374V51.9374H52.8839L52.9502 52.5974L53.5472 52.5374ZM66.6348 56.436L66.1498 56.0826L66.1423 56.0933L66.6348 56.436ZM67.5787 56.1323L67.8193 55.5827L67.8164 55.5814L67.5787 56.1323ZM67.9971 56.6711L68.5897 56.5769L68.5891 56.5731L67.9971 56.6711ZM67.8998 57.1902L68.4213 57.4871L68.4297 57.4723L68.4372 57.4571L67.8998 57.1902ZM60.5338 42.5168L60.5338 43.1168L60.5349 43.1168L60.5338 42.5168ZM67.5398 51.0485V51.6485H68.1944L68.1375 50.9964L67.5398 51.0485ZM53.5472 51.0485L52.9502 50.9886L52.8839 51.6485H53.5472V51.0485ZM83.1282 44.3681V43.7681H82.5282V44.3681H83.1282ZM81.6492 44.3681H82.2492V43.7681H81.6492V44.3681ZM81.6492 42.8792V43.4792H82.2492V42.8792H81.6492ZM82.2428 36.3848L82.1492 35.7922L82.1435 35.7931L82.2428 36.3848ZM83.1282 42.8792H82.5282V43.4792H83.1282V42.8792ZM98.2302 52.1652H98.8302V52.146L98.8289 52.1269L98.2302 52.1652ZM97.6853 60.6872L97.7788 61.2799L97.7845 61.2789L97.6853 60.6872ZM98.2788 46.4055H97.6788V48.7189L98.8032 46.6971L98.2788 46.4055ZM122.284 52.5374V51.9374H121.621L121.687 52.5974L122.284 52.5374ZM135.372 56.436L134.887 56.0826L134.879 56.0933L135.372 56.436ZM136.316 56.1323L136.556 55.5827L136.553 55.5814L136.316 56.1323ZM136.734 56.6711L137.327 56.5769L137.326 56.5731L136.734 56.6711ZM136.637 57.1902L137.158 57.4871L137.167 57.4723L137.174 57.4571L136.637 57.1902ZM129.271 42.5168L129.271 43.1168L129.272 43.1168L129.271 42.5168ZM136.277 51.0485V51.6485H136.931L136.875 50.9964L136.277 51.0485ZM122.284 51.0485L121.687 50.9886L121.621 51.6485H122.284V51.0485ZM155.359 44.3779L155.277 43.7834L155.272 43.7842L155.359 44.3779ZM148.46 60.6382L148.553 61.2309L148.559 61.2299L148.46 60.6382ZM148.168 42.8988L148.074 42.3061L148.068 42.307L148.168 42.8988ZM149.053 46.9443H148.453V49.1558L149.571 47.2475L149.053 46.9443ZM155.252 42.889V43.489H155.26L155.267 43.4888L155.252 42.889ZM164.797 52.5374V51.9374H164.134L164.2 52.5974L164.797 52.5374ZM177.885 56.436L177.4 56.0826L177.392 56.0933L177.885 56.436ZM178.829 56.1323L179.069 55.5827L179.067 55.5814L178.829 56.1323ZM179.247 56.6711L179.84 56.5769L179.839 56.5731L179.247 56.6711ZM179.15 57.1902L179.671 57.4871L179.68 57.4723L179.687 57.4571L179.15 57.1902ZM171.784 42.5168L171.784 43.1168L171.785 43.1168L171.784 42.5168ZM164.797 51.0485L164.2 50.9886L164.134 51.6485H164.797V51.0485ZM202.805 56.9552H203.405L202.267 56.6891L202.805 56.9552ZM203.749 43.0065L203.94 42.4377L203.93 42.4345L203.92 42.4316L203.749 43.0065ZM215.737 52.3807H216.337V52.3703L216.337 52.3598L215.737 52.3807ZM215.737 52.7529L215.311 52.3301L215.137 52.5056V52.7529H215.737ZM215.134 60.6872L215.227 61.2799L215.23 61.2794L215.134 60.6872ZM214.842 42.8988L214.748 42.3061L214.743 42.307L214.842 42.8988ZM215.727 46.3565H215.127V48.6699L216.252 46.6482L215.727 46.3565ZM228.231 47.3165L227.663 47.508L228.158 48.9775L228.781 47.5576L228.231 47.3165ZM68.5259 51.7734C68.5259 51.8571 68.4504 51.9374 68.3572 51.9374V53.1374C69.1008 53.1374 69.7259 52.5321 69.7259 51.7734H68.5259ZM68.3572 51.9374H53.5472V53.1374H68.3572V51.9374ZM52.9502 52.5974C53.3414 56.4947 56.2778 60.1803 60.5435 60.1803V58.9803C57.0636 58.9803 54.4924 55.9463 54.1442 52.4775L52.9502 52.5974ZM60.5435 60.1803C63.3825 60.1803 65.5338 59.0688 67.1274 56.7787L66.1423 56.0933C64.7778 58.0544 62.9979 58.9803 60.5435 58.9803V60.1803ZM67.1198 56.7893C67.1823 56.7035 67.2314 56.6748 67.2504 56.6674C67.2579 56.6645 67.2633 56.6636 67.2708 56.6638C67.2788 56.664 67.3012 56.6661 67.341 56.6833L67.8164 55.5814C67.4767 55.4349 67.131 55.4268 66.8172 55.5483C66.52 55.6634 66.3015 55.8746 66.1499 56.0827L67.1198 56.7893ZM67.3381 56.682C67.3724 56.697 67.3988 56.7305 67.4052 56.7691L68.5891 56.5731C68.5176 56.1415 68.2326 55.7636 67.8193 55.5827L67.3381 56.682ZM67.4046 56.7653C67.4086 56.7907 67.4087 56.8055 67.4084 56.8123C67.4082 56.8185 67.4075 56.8218 67.4068 56.8244C67.4041 56.8352 67.3993 56.8492 67.3625 56.9233L68.4372 57.4571C68.52 57.2905 68.6589 57.0121 68.5897 56.5769L67.4046 56.7653ZM67.3784 56.8934C66.0231 59.2743 63.2878 60.4888 60.5338 60.4888V61.6888C63.5986 61.6888 66.799 60.3369 68.4213 57.4871L67.3784 56.8934ZM60.5338 60.4888C55.9543 60.4888 52.6 56.3472 52.6 51.8028H51.4C51.4 56.8578 55.1491 61.6888 60.5338 61.6888V60.4888ZM52.6 51.8028C52.6 47.2584 55.9543 43.1168 60.5338 43.1168V41.9168C55.1491 41.9168 51.4 46.7477 51.4 51.8028H52.6ZM60.5349 43.1168C65.1184 43.1077 68.5167 47.2445 68.5259 51.7746L69.7259 51.7722C69.7156 46.7224 65.9132 41.9062 60.5326 41.9168L60.5349 43.1168ZM68.1375 50.9964C67.7966 47.0858 64.8038 43.4056 60.5435 43.4056V44.6056C64.0287 44.6056 66.6408 47.6452 66.9421 51.1006L68.1375 50.9964ZM60.5435 43.4056C56.2778 43.4056 53.3414 47.0913 52.9502 50.9886L54.1442 51.1085C54.4924 47.6396 57.0636 44.6056 60.5435 44.6056V43.4056ZM53.5472 51.6485H67.5398V50.4485H53.5472V51.6485ZM87.0983 43.4792C87.1304 43.4792 87.1619 43.4913 87.1917 43.523C87.2259 43.5594 87.2379 43.6011 87.2379 43.6236H88.4379C88.4379 42.9549 87.8916 42.2792 87.0983 42.2792V43.4792ZM87.2379 43.6236C87.2379 43.6856 87.2169 43.7171 87.2013 43.7327C87.185 43.7489 87.1542 43.7681 87.0983 43.7681V44.9681C87.8467 44.9681 88.4379 44.3874 88.4379 43.6236H87.2379ZM87.0983 43.7681H83.1282V44.9681H87.0983V43.7681ZM82.5282 44.3681V60.0505H83.7282V44.3681H82.5282ZM82.5282 60.0505C82.5282 60.0678 82.5178 60.1096 82.4804 60.1491C82.4465 60.1848 82.4134 60.1949 82.3887 60.1949V61.3949C83.1672 61.3949 83.7282 60.7246 83.7282 60.0505H82.5282ZM82.3887 60.1949C82.3567 60.1949 82.3252 60.1828 82.2953 60.1511C82.2611 60.1147 82.2492 60.073 82.2492 60.0505H81.0492C81.0492 60.7193 81.5954 61.3949 82.3887 61.3949V60.1949ZM82.2492 60.0505V44.3681H81.0492V60.0505H82.2492ZM81.6492 43.7681H77.8348V44.9681H81.6492V43.7681ZM77.8348 43.7681C77.7768 43.7681 77.7474 43.7485 77.7321 43.7329C77.7157 43.7163 77.6953 43.6834 77.6953 43.6236H76.4953C76.4953 44.3672 77.0663 44.9681 77.8348 44.9681V43.7681ZM77.6953 43.6236C77.6953 43.6063 77.7057 43.5645 77.7432 43.525C77.7771 43.4893 77.8101 43.4792 77.8348 43.4792V42.2792C77.0563 42.2792 76.4953 42.9495 76.4953 43.6236H77.6953ZM77.8348 43.4792H81.6492V42.2792H77.8348V43.4792ZM82.2492 42.8792V37.1391H81.0492V42.8792H82.2492ZM82.2492 37.1391C82.2492 37.0903 82.2662 37.0451 82.2901 37.0141C82.3126 36.9848 82.3321 36.9782 82.342 36.9766L82.1435 35.7931C81.4576 35.9082 81.0492 36.5335 81.0492 37.1391H82.2492ZM82.3363 36.9775C82.4218 36.964 82.4653 36.9887 82.4843 37.0047C82.5042 37.0216 82.5282 37.055 82.5282 37.1195H83.7282C83.7282 36.2741 83.0031 35.6574 82.1492 35.7922L82.3363 36.9775ZM82.5282 37.1195V42.8792H83.7282V37.1195H82.5282ZM83.1282 43.4792H87.0983V42.2792H83.1282V43.4792ZM110.718 50.4608V59.9623H111.918V50.4608H110.718ZM110.718 59.9623C110.718 59.9986 110.704 60.0321 110.673 60.062C110.637 60.0963 110.597 60.1068 110.578 60.1068V61.3068C111.252 61.3068 111.918 60.7512 111.918 59.9623H110.718ZM110.578 60.1068C110.52 60.1068 110.491 60.0872 110.476 60.0716C110.459 60.055 110.439 60.0221 110.439 59.9623H109.239C109.239 60.7059 109.81 61.3068 110.578 61.3068V60.1068ZM110.439 59.9623V50.4608H109.239V59.9623H110.439ZM110.439 50.4608C110.439 48.7563 109.961 47.0222 108.976 45.6983C107.978 44.3578 106.468 43.4546 104.487 43.4546V44.6546C106.058 44.6546 107.223 45.353 108.013 46.4148C108.816 47.4933 109.239 48.9622 109.239 50.4608H110.439ZM104.487 43.4546C102.007 43.4546 100.193 44.5582 99.0558 46.2339C97.935 47.8856 97.4938 50.0548 97.6314 52.2035L98.8289 52.1269C98.7038 50.1713 99.114 48.2853 100.049 46.9077C100.967 45.5542 102.413 44.6546 104.487 44.6546V43.4546ZM97.6302 52.1652C97.6302 52.2185 97.6352 52.2914 97.6394 52.3481C97.6443 52.4129 97.6506 52.4876 97.6568 52.5577C97.663 52.6298 97.6689 52.6948 97.6734 52.7478C97.6756 52.774 97.6773 52.7945 97.6784 52.8091C97.6801 52.833 97.6788 52.8223 97.6788 52.8019H98.8788C98.8788 52.7693 98.876 52.7328 98.8751 52.7207C98.8735 52.6993 98.8714 52.6734 98.8691 52.646C98.8644 52.5919 98.8581 52.5209 98.8522 52.4535C98.8462 52.384 98.8404 52.3155 98.8361 52.2585C98.834 52.2299 98.8323 52.2061 98.8313 52.1876C98.8301 52.1665 98.8302 52.1611 98.8302 52.1652H97.6302ZM97.6788 52.8019V59.9329H98.8788V52.8019H97.6788ZM97.6788 59.9329C97.6788 59.9818 97.6618 60.027 97.6379 60.058C97.6154 60.0872 97.5959 60.0938 97.586 60.0955L97.7845 61.2789C98.4704 61.1638 98.8788 60.5386 98.8788 59.9329H97.6788ZM97.5917 60.0945C97.5062 60.108 97.4627 60.0834 97.4437 60.0673C97.4238 60.0505 97.3998 60.017 97.3998 59.9525H96.1998C96.1998 60.798 96.9249 61.4147 97.7788 61.2798L97.5917 60.0945ZM97.3998 59.9525V28.7444H96.1998V59.9525H97.3998ZM97.3998 28.7444C97.3998 28.7271 97.4102 28.6853 97.4477 28.6458C97.4816 28.6102 97.5146 28.6 97.5393 28.6V27.4C96.7608 27.4 96.1998 28.0703 96.1998 28.7444H97.3998ZM97.5393 28.6C97.5713 28.6 97.6028 28.6121 97.6327 28.6438C97.6669 28.6802 97.6788 28.7219 97.6788 28.7444H98.8788C98.8788 28.0757 98.3326 27.4 97.5393 27.4V28.6ZM97.6788 28.7444V46.4055H98.8788V28.7444H97.6788ZM98.8032 46.6971C99.9881 44.5665 102.079 43.1657 104.477 43.1657V41.9657C101.582 41.9657 99.119 43.6603 97.7545 46.1139L98.8032 46.6971ZM104.477 43.1657C108.374 43.1657 110.718 46.6014 110.718 50.4608H111.918C111.918 46.2097 109.279 41.9657 104.477 41.9657V43.1657ZM137.273 51.7734C137.273 51.8571 137.197 51.9374 137.104 51.9374V53.1374C137.848 53.1374 138.473 52.5321 138.473 51.7734H137.273ZM137.104 51.9374H122.284V53.1374H137.104V51.9374ZM121.687 52.5974C122.079 56.4947 125.015 60.1803 129.281 60.1803V58.9803C125.801 58.9803 123.23 55.9463 122.881 52.4775L121.687 52.5974ZM129.281 60.1803C132.12 60.1803 134.271 59.0688 135.864 56.7787L134.879 56.0933C133.515 58.0544 131.735 58.9803 129.281 58.9803V60.1803ZM135.857 56.7893C135.919 56.7035 135.968 56.6748 135.988 56.6674C135.995 56.6645 136 56.6636 136.008 56.6638C136.016 56.664 136.038 56.6661 136.078 56.6833L136.553 55.5814C136.214 55.4349 135.868 55.4268 135.554 55.5483C135.257 55.6634 135.039 55.8746 134.887 56.0827L135.857 56.7893ZM136.075 56.682C136.11 56.697 136.136 56.7305 136.142 56.7691L137.326 56.5731C137.255 56.1415 136.97 55.7636 136.556 55.5827L136.075 56.682ZM136.142 56.7653C136.146 56.7907 136.146 56.8055 136.145 56.8123C136.145 56.8185 136.145 56.8218 136.144 56.8244C136.141 56.8352 136.136 56.8492 136.1 56.9233L137.174 57.4571C137.257 57.2905 137.396 57.0121 137.327 56.5769L136.142 56.7653ZM136.115 56.8934C134.76 59.2743 132.025 60.4888 129.271 60.4888V61.6888C132.336 61.6888 135.536 60.3369 137.158 57.4871L136.115 56.8934ZM129.271 60.4888C124.691 60.4888 121.337 56.3472 121.337 51.8028H120.137C120.137 56.8578 123.886 61.6888 129.271 61.6888V60.4888ZM121.337 51.8028C121.337 47.2584 124.691 43.1168 129.271 43.1168V41.9168C123.886 41.9168 120.137 46.7477 120.137 51.8028H121.337ZM129.272 43.1168C133.866 43.1077 137.264 47.245 137.273 51.7746L138.473 51.7722C138.462 46.7219 134.66 41.9062 129.27 41.9168L129.272 43.1168ZM136.875 50.9964C136.534 47.0858 133.541 43.4056 129.281 43.4056V44.6056C132.766 44.6056 135.378 47.6452 135.679 51.1006L136.875 50.9964ZM129.281 43.4056C125.015 43.4056 122.079 47.0913 121.687 50.9886L122.881 51.1085C123.23 47.6396 125.801 44.6056 129.281 44.6056V43.4056ZM122.284 51.6485H136.277V50.4485H122.284V51.6485ZM155.449 43.5747C155.449 43.6403 155.44 43.681 155.433 43.7033C155.426 43.7241 155.419 43.7319 155.417 43.7345C155.416 43.7359 155.388 43.7682 155.277 43.7835L155.44 44.9723C155.757 44.9288 156.075 44.7995 156.312 44.5339C156.551 44.2661 156.649 43.9257 156.649 43.5747H155.449ZM155.272 43.7842C152.935 44.1262 151.21 45.2686 150.081 46.9018C148.962 48.5209 148.453 50.5839 148.453 52.7529H149.653C149.653 50.7589 150.122 48.9528 151.068 47.5842C152.005 46.2299 153.432 45.2662 155.446 44.9716L155.272 43.7842ZM148.453 52.7529V59.884H149.653V52.7529H148.453ZM148.453 59.884C148.453 59.9328 148.436 59.978 148.412 60.009C148.39 60.0382 148.37 60.0448 148.36 60.0465L148.559 61.2299C149.245 61.1149 149.653 60.4896 149.653 59.884H148.453ZM148.366 60.0456C148.281 60.059 148.237 60.0344 148.218 60.0184C148.198 60.0015 148.174 59.968 148.174 59.9036H146.974C146.974 60.749 147.699 61.3657 148.553 61.2309L148.366 60.0456ZM148.174 59.9036V43.653H146.974V59.9036H148.174ZM148.174 43.653C148.174 43.6042 148.191 43.559 148.215 43.528C148.238 43.4988 148.257 43.4922 148.267 43.4905L148.068 42.307C147.383 42.4221 146.974 43.0474 146.974 43.653H148.174ZM148.261 43.4914C148.347 43.4779 148.39 43.5026 148.409 43.5186C148.429 43.5355 148.453 43.569 148.453 43.6334H149.653C149.653 42.788 148.928 42.1713 148.074 42.3061L148.261 43.4914ZM148.453 43.6334V46.9443H149.653V43.6334H148.453ZM149.571 47.2475C150.724 45.2784 153.001 43.489 155.252 43.489V42.289C152.423 42.289 149.815 44.4569 148.535 46.641L149.571 47.2475ZM155.267 43.4888C155.284 43.4883 155.31 43.4912 155.341 43.5016C155.372 43.5119 155.399 43.5268 155.419 43.5426C155.439 43.5583 155.447 43.5704 155.449 43.5742C155.45 43.5758 155.449 43.5742 155.449 43.5747H156.649C156.649 43.143 156.426 42.8068 156.159 42.5978C155.899 42.3943 155.564 42.2805 155.236 42.2892L155.267 43.4888ZM179.776 51.7734C179.776 51.8571 179.701 51.9374 179.607 51.9374V53.1374C180.351 53.1374 180.976 52.5321 180.976 51.7734H179.776ZM179.607 51.9374H164.797V53.1374H179.607V51.9374ZM164.2 52.5974C164.592 56.4947 167.528 60.1803 171.794 60.1803V58.9803C168.314 58.9803 165.743 55.9463 165.394 52.4775L164.2 52.5974ZM171.794 60.1803C174.633 60.1803 176.784 59.0688 178.377 56.7787L177.392 56.0933C176.028 58.0544 174.248 58.9803 171.794 58.9803V60.1803ZM178.37 56.7893C178.432 56.7035 178.482 56.6748 178.501 56.6674C178.508 56.6645 178.513 56.6636 178.521 56.6638C178.529 56.664 178.551 56.6661 178.591 56.6833L179.067 55.5814C178.727 55.4349 178.381 55.4268 178.067 55.5483C177.77 55.6634 177.552 55.8746 177.4 56.0827L178.37 56.7893ZM178.588 56.682C178.623 56.697 178.649 56.7305 178.655 56.7691L179.839 56.5731C179.768 56.1415 179.483 55.7636 179.069 55.5827L178.588 56.682ZM178.655 56.7653C178.659 56.7907 178.659 56.8055 178.659 56.8123C178.658 56.8185 178.658 56.8218 178.657 56.8244C178.654 56.8352 178.649 56.8492 178.613 56.9233L179.687 57.4571C179.77 57.2905 179.909 57.0121 179.84 56.5769L178.655 56.7653ZM178.629 56.8934C177.273 59.2743 174.538 60.4888 171.784 60.4888V61.6888C174.849 61.6888 178.049 60.3369 179.671 57.4871L178.629 56.8934ZM171.784 60.4888C167.204 60.4888 163.85 56.3472 163.85 51.8028H162.65C162.65 56.8578 166.399 61.6888 171.784 61.6888V60.4888ZM163.85 51.8028C163.85 47.2584 167.204 43.1168 171.784 43.1168V41.9168C166.399 41.9168 162.65 46.7477 162.65 51.8028H163.85ZM171.785 43.1168C176.369 43.1077 179.767 47.2445 179.776 51.7746L180.976 51.7722C180.966 46.7224 177.163 41.9062 171.783 41.9168L171.785 43.1168ZM179.388 50.9964C179.047 47.0858 176.054 43.4056 171.794 43.4056V44.6056C175.279 44.6056 177.891 47.6452 178.192 51.1006L179.388 50.9964ZM171.794 43.4056C167.528 43.4056 164.592 47.0913 164.2 50.9886L165.394 51.1085C165.743 47.6396 168.314 44.6056 171.794 44.6056V43.4056ZM164.797 51.6485H178.79V50.4485H164.797V51.6485ZM203.684 43.7608V60.0505H204.884V43.7608H203.684ZM203.684 60.0505C203.684 60.0868 203.67 60.1202 203.639 60.1501C203.603 60.1844 203.563 60.1949 203.545 60.1949V61.3949C204.219 61.3949 204.884 60.8394 204.884 60.0505H203.684ZM203.545 60.1949C203.487 60.1949 203.457 60.1754 203.442 60.1598C203.426 60.1432 203.405 60.1102 203.405 60.0505H202.205C202.205 60.7941 202.776 61.3949 203.545 61.3949V60.1949ZM203.405 60.0505V56.9552H202.205V60.0505H203.405ZM202.267 56.6891C201.123 59.0017 199.122 60.5672 196.655 60.5672V61.7672C199.696 61.7672 202.054 59.8259 203.343 57.2212L202.267 56.6891ZM196.655 60.5672C194.651 60.5672 193.11 59.6999 192.056 58.3681C190.992 57.0232 190.415 55.1865 190.415 53.2721H189.215C189.215 55.413 189.858 57.5238 191.115 59.1126C192.382 60.7145 194.262 61.7672 196.655 61.7672V60.5672ZM190.415 53.2721V43.7216H189.215V53.2721H190.415ZM190.415 43.7216C190.415 43.7043 190.425 43.6624 190.463 43.623C190.497 43.5873 190.53 43.5771 190.554 43.5771V42.3771C189.776 42.3771 189.215 43.0475 189.215 43.7216H190.415ZM190.554 43.5771C190.586 43.5771 190.618 43.5892 190.648 43.621C190.682 43.6573 190.694 43.699 190.694 43.7216H191.894C191.894 43.0528 191.348 42.3771 190.554 42.3771V43.5771ZM190.694 43.7216V53.2721H191.894V43.7216H190.694ZM190.694 53.2721C190.694 54.9766 191.171 56.7107 192.157 58.0346C193.154 59.3751 194.665 60.2783 196.646 60.2783V59.0783C195.075 59.0783 193.909 58.3798 193.119 57.3181C192.316 56.2396 191.894 54.7706 191.894 53.2721H190.694ZM196.646 60.2783C197.989 60.2783 199.112 59.9607 200.033 59.3689C200.951 58.7784 201.63 57.9392 202.125 56.9539C203.105 55.0039 203.395 52.4188 203.395 49.8045H202.195C202.195 52.372 201.902 54.7238 201.053 56.4152C200.633 57.2506 200.086 57.9083 199.384 58.3595C198.684 58.8094 197.793 59.0783 196.646 59.0783V60.2783ZM203.395 49.8045V43.7216H202.195V49.8045H203.395ZM203.395 43.7216C203.395 43.7124 203.398 43.6933 203.41 43.6683C203.422 43.6434 203.44 43.6207 203.46 43.6039C203.48 43.5876 203.497 43.5798 203.512 43.5765C203.524 43.5737 203.544 43.5716 203.577 43.5815L203.92 42.4316C202.94 42.139 202.195 42.9658 202.195 43.7216H203.395ZM203.558 43.5754C203.624 43.5975 203.684 43.674 203.684 43.7608H204.884C204.884 43.1814 204.516 42.6311 203.94 42.4377L203.558 43.5754ZM241.147 50.402V59.9525H242.347V50.402H241.147ZM241.147 59.9525C241.147 59.9888 241.133 60.0223 241.102 60.0522C241.066 60.0865 241.026 60.097 241.008 60.097V61.297C241.682 61.297 242.347 60.7414 242.347 59.9525H241.147ZM241.008 60.097C240.95 60.097 240.92 60.0774 240.905 60.0618C240.888 60.0452 240.868 60.0123 240.868 59.9525H239.668C239.668 60.6961 240.239 61.297 241.008 61.297V60.097ZM240.868 59.9525V50.402H239.668V59.9525H240.868ZM240.868 50.402C240.868 48.6972 240.39 46.9763 239.403 45.6661C238.403 44.3392 236.893 43.4546 234.916 43.4546V44.6546C236.491 44.6546 237.657 45.3422 238.445 46.3882C239.246 47.451 239.668 48.9038 239.668 50.402H240.868ZM234.916 43.4546C232.427 43.4546 230.714 44.8127 229.653 46.6168C228.604 48.3993 228.166 50.645 228.166 52.5864H229.366C229.366 50.7958 229.775 48.7756 230.687 47.2252C231.587 45.6964 232.949 44.6546 234.916 44.6546V43.4546ZM228.166 52.5864V59.9525H229.366V52.5864H228.166ZM228.166 59.9525C228.166 59.9888 228.153 60.0223 228.121 60.0522C228.085 60.0865 228.046 60.097 228.027 60.097V61.297C228.701 61.297 229.366 60.7414 229.366 59.9525H228.166ZM228.027 60.097C227.969 60.097 227.94 60.0774 227.924 60.0618C227.908 60.0452 227.887 60.0123 227.887 59.9525H226.687C226.687 60.6961 227.258 61.297 228.027 61.297V60.097ZM227.887 59.9525V50.402H226.687V59.9525H227.887ZM227.887 50.402C227.887 48.6972 227.41 46.9763 226.423 45.6661C225.423 44.3392 223.912 43.4546 221.936 43.4546V44.6546C223.511 44.6546 224.676 45.3422 225.464 46.3882C226.265 47.451 226.687 48.9038 226.687 50.402H227.887ZM221.936 43.4546C219.5 43.4546 217.715 44.4343 216.588 46.0998C215.483 47.7322 215.052 49.9573 215.137 52.4016L216.337 52.3598C216.256 50.0534 216.673 48.1154 217.582 46.7725C218.468 45.4626 219.866 44.6546 221.936 44.6546V43.4546ZM215.137 52.3807C215.137 52.415 215.139 52.4467 215.141 52.471C215.143 52.4959 215.145 52.5201 215.147 52.5402C215.152 52.5871 215.155 52.6104 215.157 52.6384C215.158 52.65 215.159 52.6563 215.159 52.6589C215.159 52.6621 215.158 52.6554 215.16 52.6419C215.16 52.6305 215.164 52.5963 215.178 52.5506C215.191 52.5081 215.225 52.4172 215.311 52.3301L216.163 53.1758C216.261 53.0764 216.305 52.968 216.324 52.904C216.345 52.8367 216.353 52.7767 216.356 52.7367C216.362 52.658 216.357 52.5838 216.353 52.5394C216.35 52.4938 216.343 52.44 216.341 52.4146C216.337 52.3768 216.337 52.3722 216.337 52.3807H215.137ZM215.137 52.7529V59.9329H216.337V52.7529H215.137ZM215.137 59.9329C215.137 59.9816 215.12 60.0255 215.097 60.0553C215.076 60.0828 215.055 60.0921 215.037 60.095L215.23 61.2794C215.924 61.1661 216.337 60.5432 216.337 59.9329H215.137ZM215.04 60.0945C214.955 60.108 214.911 60.0834 214.892 60.0673C214.872 60.0505 214.848 60.017 214.848 59.9525H213.648C213.648 60.798 214.373 61.4147 215.227 61.2798L215.04 60.0945ZM214.848 59.9525V43.653H213.648V59.9525H214.848ZM214.848 43.653C214.848 43.6042 214.865 43.559 214.889 43.528C214.912 43.4988 214.931 43.4922 214.941 43.4905L214.743 42.307C214.057 42.4221 213.648 43.0474 213.648 43.653H214.848ZM214.935 43.4914C215.021 43.4779 215.064 43.5026 215.083 43.5186C215.103 43.5355 215.127 43.569 215.127 43.6334H216.327C216.327 42.788 215.602 42.1713 214.748 42.3061L214.935 43.4914ZM215.127 43.6334V46.3565H216.327V43.6334H215.127ZM216.252 46.6482C217.433 44.5246 219.521 43.1657 221.926 43.1657V41.9657C219.037 41.9657 216.571 43.6043 215.203 46.0649L216.252 46.6482ZM221.926 43.1657C224.652 43.1657 226.78 44.8883 227.663 47.508L228.8 47.125C227.775 44.083 225.233 41.9657 221.926 41.9657V43.1657ZM228.781 47.5576C229.925 44.9484 232.125 43.1657 234.906 43.1657V41.9657C231.539 41.9657 228.97 44.1404 227.682 47.0754L228.781 47.5576ZM234.906 43.1657C238.809 43.1657 241.147 46.5487 241.147 50.402H242.347C242.347 46.1448 239.703 41.9657 234.906 41.9657V43.1657Z" fill="white" mask="url(#path-1-outside-1)"/>
<path fill-rule="evenodd" clip-rule="evenodd" d="M23.0878 20.0006V20L38.1699 45.036L23.088 53.9506V53.9511L8 45.0364L23.0878 20.0006ZM23.0879 69.1526L23.088 69.1527V69.1525L38.1817 47.8949L23.0879 56.8096L8 47.8949L23.0878 69.1525V69.1527L23.0879 69.1526Z" fill="white"/>
</svg>
