<svg width="226" height="90" viewBox="0 0 226 90" fill="none" xmlns="http://www.w3.org/2000/svg">
<path d="M34.2489 18.7511C29.0574 18.7511 23.9824 20.2906 19.6658 23.1748C15.3492 26.0591 11.9848 30.1586 9.99809 34.955C8.01137 39.7513 7.49156 45.0291 8.50438 50.1209C9.5172 55.2127 12.0172 59.8898 15.6881 63.5608C19.3591 67.2318 24.0362 69.7317 29.128 70.7446C34.2198 71.7574 39.4976 71.2376 44.294 69.2508C49.0903 67.2641 53.1898 63.8997 56.0741 59.5831C58.9584 55.2665 60.4979 50.1916 60.4979 45V45C60.5079 41.5501 59.8359 38.1323 58.5203 34.9431C57.2047 31.7539 55.2716 28.8562 52.8322 26.4168C50.3927 23.9773 47.4951 22.0442 44.3059 20.7287C41.1167 19.4131 37.6988 18.741 34.2489 18.7511V18.7511ZM34.6938 45.8898L31.9609 55.1055H46.5789C46.6801 55.102 46.7808 55.1193 46.875 55.1563C46.9691 55.1934 47.0546 55.2495 47.1261 55.321C47.1977 55.3925 47.2537 55.4781 47.2908 55.5722C47.3279 55.6663 47.3452 55.7671 47.3416 55.8682V56.0589L46.0705 60.4443C46.0134 60.6511 45.8883 60.8326 45.7153 60.9595C45.5423 61.0863 45.3315 61.1511 45.1171 61.1434H22.7452L26.495 48.3685L22.3003 49.6396L23.2536 46.716L27.4484 45.4449L32.7236 27.5219C32.7806 27.3151 32.9058 27.1336 33.0788 27.0067C33.2518 26.8799 33.4625 26.8151 33.6769 26.8228H39.3335C39.4346 26.8192 39.5353 26.8365 39.6295 26.8736C39.7236 26.9107 39.8091 26.9667 39.8807 27.0383C39.9522 27.1098 40.0083 27.1953 40.0453 27.2895C40.0824 27.3836 40.0997 27.4844 40.0962 27.5855V27.7761L35.6472 42.9026L39.8419 41.6315L38.9521 44.6822L34.6938 45.8898Z" fill="white"/>
<path d="M91.2613 59.4372L92.2273 55.1114H79.8798L85.0875 31.4243H80.1737L74 59.4372H91.2613Z" fill="white"/>
<path d="M102.973 36.6741C104.359 36.6741 106.081 35.5402 106.081 33.5663C106.081 32.2643 105.031 31.2144 103.603 31.2144C102.217 31.2144 100.495 32.3483 100.495 34.3222C100.495 35.5822 101.545 36.6741 102.973 36.6741ZM99.865 59.4372L104.359 39.152H99.949L95.4552 59.4372H99.865Z" fill="white"/>
<path d="M112.893 59.9412C114.153 59.9412 115.287 59.6052 116.085 59.0172L115.833 55.4894C115.497 55.7414 114.783 56.0353 114.153 56.0353C112.809 56.0353 112.137 55.3214 112.137 54.1874C112.137 53.9354 112.179 53.6834 112.221 53.4314L114.531 42.9739H118.647L119.529 39.152H115.413L116.631 33.6083H112.221L111.003 39.152H107.644L106.762 42.9739H110.121L107.56 54.5234C107.476 55.0274 107.434 55.6154 107.434 55.8253C107.434 58.6392 109.617 59.9412 112.893 59.9412Z" fill="white"/>
<path d="M130.043 59.9412C132.605 59.9412 135.293 59.0592 137.224 57.7153L135.797 54.6074C134.411 55.7414 132.269 56.3293 130.379 56.3293C126.263 56.3293 124.247 53.7674 124.247 51.4155C124.247 51.2055 124.247 50.8696 124.289 50.7436H139.954C140.122 50.1136 140.374 48.6856 140.374 47.5937C140.374 42.1339 136.678 38.6481 131.387 38.6481C124.793 38.6481 119.795 44.2338 119.795 50.8696C119.795 56.4133 123.785 59.9412 130.043 59.9412ZM136.301 47.5937H124.751C125.255 44.7798 127.859 42.2599 131.093 42.2599C134.621 42.2599 136.427 44.4018 136.427 47.0477C136.427 47.1737 136.385 47.4677 136.385 47.5937H136.301Z" fill="white"/>
<path d="M152.875 59.9412C156.319 59.9412 158.754 58.4292 160.35 56.7493L157.957 53.8094C156.865 55.1114 155.227 56.0353 153.295 56.0353C150.187 56.0353 147.709 54.1034 147.709 50.5756C147.709 46.3337 150.481 42.5539 154.849 42.5539C156.823 42.5539 158.545 43.4359 159.468 45.0738L162.786 42.5539C161.4 40.244 158.796 38.6481 154.849 38.6481C148.297 38.6481 143.173 44.1078 143.173 50.7856C143.173 56.3713 147.079 59.9412 152.875 59.9412Z" fill="white"/>
<path d="M173.792 59.9412C180.512 59.9412 185.341 54.1034 185.341 47.7617C185.341 42.4279 181.814 38.6481 175.64 38.6481C168.92 38.6481 164.09 44.4438 164.09 50.7856C164.09 56.1193 167.618 59.9412 173.792 59.9412ZM173.96 56.0353C170.642 56.0353 168.668 53.9354 168.668 50.6176C168.668 46.4597 171.482 42.5539 175.472 42.5539C178.79 42.5539 180.764 44.6538 180.764 47.9717C180.764 52.0875 177.95 56.0353 173.96 56.0353Z" fill="white"/>
<path d="M194.926 36.6741C196.312 36.6741 198.034 35.5402 198.034 33.5663C198.034 32.2643 196.984 31.2144 195.556 31.2144C194.17 31.2144 192.448 32.3483 192.448 34.3222C192.448 35.5822 193.498 36.6741 194.926 36.6741ZM191.818 59.4372L196.312 39.152H191.902L187.408 59.4372H191.818Z" fill="white"/>
<path d="M215.682 59.4372L218.748 45.4518C218.874 44.9898 219 44.1078 219 43.7298C219 40.538 216.522 38.6481 212.742 38.6481C209.802 38.6481 207.493 40.286 205.813 41.8819L206.443 39.152H202.033L197.539 59.4372H201.949L205.099 45.2838C206.443 43.8978 208.416 42.5539 210.474 42.5539C212.616 42.5539 214.254 43.3519 214.254 45.4098C214.254 45.8298 214.17 46.2917 214.086 46.7117L211.272 59.4372H215.682Z" fill="white"/>
</svg>
