<svg id="Layer_1_1_" enable-background="new 0 0 64 64" height="512" viewBox="0 0 64 64" width="512" xmlns="http://www.w3.org/2000/svg"><path d="m46.305 42.969c-1.092-1.217-2.327-5.41-3.276-6.869.01.017.019.034.029.051l.067.111c.864 1.416.311 3.269-1.187 3.981-1.217.579-2.674.207-3.465-.884l-4.984-6.876-.982 8.571c-.126 1.098-1.077 1.914-2.182 1.872-1.113-.043-2.002-.943-2.032-2.056l-.189-7.1-2.324 2.728c-.775.91-2.12 1.072-3.089.373-.526-.38-.838-.946-.92-1.548-1.371 2.328-2.726 5.738-4.508 7.634l-14.263 18.043h58z" fill="#262626"/><path d="m43.126 36.262-.067-.111c-.01-.017-.019-.034-.029-.051-1.082-1.78-2.048-3.629-2.888-5.536l-2.452-5.564-3.414 2.276-3.414-2.276-2.276 2.276-2.276-2.276-3.248 7.038c-.245.53-.758 1.367-1.038 1.879-.242.443-.315.934-.25 1.404.082.602.394 1.168.92 1.548.97.7 2.314.537 3.089-.373l2.324-2.728.189 7.1c.03 1.114.918 2.013 2.032 2.056 1.105.043 2.056-.773 2.182-1.872l.982-8.571 4.984 6.876c.791 1.091 2.247 1.463 3.465.884 1.496-.71 2.049-2.563 1.185-3.979z" fill="#c24827"/><path d="m43.126 36.262-.067-.111c-.01-.017-.019-.034-.029-.051-1.082-1.78-2.048-3.629-2.888-5.536 0 0-2.452-5.565-2.452-5.565l-3.414 2.276-3.414-2.275-2.276 2.276-2.276-2.276-3.248 7.038c-.219.473-.773 1.405-1.028 1.86-.251.448-.326.946-.261 1.423.057.417.232.813.505 1.146.273-.473.602-1.036.784-1.429l2.455-5.319c.385-.834 1.482-1.03 2.132-.38l.004.004c.515.515 1.351.515 1.867 0l.577-.577c.445-.445 1.142-.514 1.666-.165l1.781 1.187c.443.296 1.021.296 1.464 0l1.375-.916c.682-.455 1.61-.184 1.94.566l1.26 2.861c.733 1.664 2.568 5.228 3.454 6.815.007.013.014.025.021.038l.033.054c.546-.866.611-1.999.035-2.944z" fill="#ffd050"/><path d="" fill="#9c9c9c"/><path d="m3 2c0 5 2 5 2 5 0 1.105.895 2 2 2s2.277-.895 2.277-2c.693 1.191 2.246 2 3.723 2s3.03-.809 3.723-2c0 1.87 1.482 3.441 3.277 3.878h.087c-.051.368-.087.74-.087 1.122 0 2.455 1.105 4.651 2.846 6.118 2.587 2.181 4.387 5.109 4.95 8.367l.791.791 2.275-2.276 3.414 2.276 2.798-1.865-.127-4.407c.032-.024 1.434-1.627 1.434-1.627.324-.586.528-1.243.591-1.944.232.028.467.046.707.046 2.027 0 3.815-1.016 4.889-2.564.912.214 1.909.005 2.666-.66 1.213-1.065 1.351-2.887.347-4.132 1.001-.734 1.696-1.852 1.696-3.123.693 1.191 2.246 2 3.723 2s3.03-.809 3.723-2c0 1.105 1.173 2 2.277 2s2-.895 2-2v-5z" fill="#d1d1d1"/><g fill="#b3b3b3"><path d="m59 5.724c-.652 0-1.328-.312-1.772-.795-.394-.427-1.059-.441-1.528-.099-.764.558-1.748.894-2.7.894-.873 0-1.773-.283-2.506-.761-.583-.38-1.338-.109-1.676.5-.155.279-.345.54-.562.778-.343.376-.419.892-.229 1.364.269.669.281 1.411.054 2.085.723-.708 1.196-1.646 1.196-2.69.693 1.191 2.246 2 3.723 2s3.03-.809 3.723-2c0 1.105 1.173 2 2.277 2s2-.895 2-2v-.196c0-.772-.727-1.353-1.472-1.15-.168.046-.345.07-.528.07z"/><path d="m32.745 22.979c-1.095-.73-2.552-.586-3.483.345l-.676.676-.791-.791c-.563-3.258-2.363-6.185-4.95-8.367-1.74-1.467-2.845-3.663-2.845-6.118 0-.382.036-.754.087-1.121h-.087c-.898-.219-1.717-.721-2.312-1.402-.786-.899-2.082-1.127-3.21-.734-.477.166-.982.257-1.478.257-.668 0-1.352-.166-1.964-.457-.878-.418-1.935-.448-2.757.071-.384.243-.837.386-1.279.386-1.105 0-2-.895-2-2 0 0-.979-.007-1.567-1.724h-.433c0 5 2 5 2 5 0 1.105.895 2 2 2s2.277-.895 2.277-2c.693 1.191 2.246 2 3.723 2s3.03-.809 3.723-2c0 1.87 1.482 3.441 3.277 3.878h.087c-.051.368-.087.74-.087 1.122 0 2.455 1.105 4.651 2.846 6.118 2.587 2.181 4.387 5.109 4.95 8.367l.791.791 2.275-2.276 3.414 2.276 2.798-1.865-.093-3.214-1.174.783c-.927.617-2.135.617-3.062-.001z"/><path d="m47.234 10.978c-.541.475-1.205.718-1.872.739-.49.016-.961.182-1.291.544-1.087 1.192-2.652 1.941-4.392 1.941-.24 0-.475-.018-.707-.046-.063.701-.267 1.358-.591 1.944 0 0-.573.655-.995 1.134-.283.321-.433.737-.42 1.165l.072 2.504c.312-.348 1.343-1.527 1.343-1.527.324-.586.528-1.243.591-1.944.232.028.467.046.707.046 2.027 0 3.815-1.016 4.889-2.564.912.214 1.909.005 2.666-.66 1.135-.997 1.316-2.652.512-3.881-.144.217-.307.425-.512.605z"/></g><path d="m47.05 42.301c-.499-.556-1.178-2.235-1.724-3.585-.46-1.135-.897-2.195-1.323-2.926-.009-.016-.014-.034-.023-.05l-.067-.11c-1.068-1.752-2.029-3.592-2.856-5.469l-2.452-5.564c-.119-.271-.352-.474-.635-.557-.285-.082-.589-.036-.835.128l-2.859 1.905-2.859-1.905c-.397-.266-.924-.212-1.262.125l-1.569 1.568-1.569-1.568c-.231-.231-.56-.336-.883-.277-.322.058-.595.269-.732.565l-3.249 7.037c-.153.33-.418.787-.655 1.198-.132.229-.255.443-.353.621-.288.526-.412 1.101-.395 1.667-.399.701-.794 1.449-1.204 2.253-.935 1.834-1.9 3.73-3.066 4.977l-14.265 18.046c-.238.301-.282.711-.115 1.056s.517.564.9.564h58c.386 0 .738-.223.903-.571s.116-.761-.128-1.061zm-24.149-7.905c.091-.166.207-.367.33-.581.261-.452.557-.965.738-1.358l2.648-5.736 1.262 1.262c.391.391 1.023.391 1.414 0l1.696-1.695 2.731 1.82c.336.225.773.225 1.109 0l2.423-1.615 1.972 4.476c.847 1.924 1.833 3.807 2.923 5.605l-.001.001c.006.009.013.021.019.03.013.022.025.046.038.068v.001l.067.109c.268.44.335.954.188 1.448s-.484.888-.95 1.109c-.779.37-1.717.133-2.226-.568l-4.983-6.876c-.242-.334-.665-.486-1.063-.38-.399.104-.692.443-.74.853l-.982 8.57c-.065.575-.542 1.001-1.149.987-.585-.022-1.055-.499-1.071-1.084l-.188-7.101c-.011-.414-.276-.778-.667-.917-.109-.038-.222-.057-.333-.057-.288 0-.568.124-.761.352l-2.323 2.729c-.434.51-1.199.602-1.744.21-.211-.152-.345-.365-.432-.594 0-.001.001-.001.001-.002l-.003-.002c-.127-.341-.128-.725.057-1.064zm-17.836 25.604 12.929-16.361c1.306-1.389 2.337-3.414 3.335-5.374.152-.298.301-.589.448-.874.105.1.21.201.33.288 1.382.998 3.331.764 4.437-.534l.632-.742.119 4.492c.043 1.636 1.358 2.967 2.993 3.029.04.002.079.003.118.003 1.568-.001 2.916-1.191 3.096-2.76l.689-6.014 3.474 4.792c1.073 1.479 3.051 1.984 4.704 1.201.533-.254.984-.635 1.342-1.09.61 1.498 1.198 2.854 1.819 3.544l13.365 16.4z"/><path d="m60 7c0 .552-.449 1-1 1-.621 0-1.277-.514-1.277-1 0-.452-.303-.848-.739-.966-.438-.12-.898.071-1.125.463-.507.871-1.71 1.503-2.859 1.503s-2.352-.632-2.858-1.503c-.227-.392-.686-.583-1.125-.463-.436.118-.74.514-.74.966 0 1.598-1.531 3-3.277 3v2c.776 0 1.518-.172 2.189-.471.047.194.074.395.061.6-.035.533-.275 1.021-.676 1.374-.402.353-.917.524-1.449.493-.533-.035-1.021-.275-1.373-.677l-1.503 1.32c.705.803 1.681 1.283 2.747 1.352.088.006.176.009.264.009.971 0 1.898-.348 2.634-.995.803-.705 1.283-1.681 1.352-2.747.044-.672-.097-1.322-.371-1.917.387-.401.715-.853.951-1.351.911.629 2.05 1.01 3.174 1.01 1.227 0 2.472-.454 3.42-1.19.646.743 1.645 1.19 2.58 1.19 1.654 0 3-1.346 3-3v-5h-2z"/><path d="m4.093 7.744c.332 1.296 1.51 2.256 2.907 2.256.935 0 1.934-.447 2.58-1.19.948.736 2.193 1.19 3.42 1.19 1.126 0 2.267-.383 3.18-1.015.552 1.157 1.569 2.109 2.839 2.619-.006.133-.019.263-.019.396 0 4.963 4.038 9 9 9v-2c-3.86 0-7-3.141-7-7 0-.908.171-1.791.508-2.625l-1.854-.75c-.122.301-.223.608-.311.918-.963-.551-1.62-1.527-1.62-2.543 0-.452-.303-.848-.739-.966-.44-.12-.898.071-1.125.463-.507.871-1.71 1.503-2.859 1.503s-2.352-.632-2.858-1.503c-.227-.392-.688-.583-1.125-.463-.436.118-.74.514-.74.966 0 .486-.657 1-1.277 1-.551 0-1-.448-1-1 0-.553-.354-.993-.906-.993-.011-.003-1.094-.368-1.094-4.007h-2c0 3.898 1.204 5.267 2.093 5.744z"/><path d="m40 17c0-1.905-.875-3.654-2.399-4.8l-1.201 1.6c1.017.763 1.6 1.93 1.6 3.2 0 1.432-.754 2.722-2.018 3.45-.241.139-.413.372-.475.644-.062.271-.009.556.148.785.226.331.345.719.345 1.121 0 .186.029.376.087.565l1.913-.565c0-.467-.08-.924-.236-1.354 1.398-1.131 2.236-2.839 2.236-4.646z"/><path d="m17.372 19.003h-2c0 3.477 3.472 6 8.256 6v-2c-3.566 0-6.256-1.72-6.256-4z"/><path d="m22 4h2v2h-2z"/><path d="m53 3h2v2h-2z"/><path d="m42.789 5.299c-1.453-1.275-3.319-1.978-5.253-1.978-4.392 0-7.964 3.573-7.964 7.965 0 2.194.874 4.238 2.459 5.755l1.383-1.445c-1.188-1.136-1.842-2.666-1.842-4.31 0-3.289 2.676-5.965 5.964-5.965 1.449 0 2.846.526 3.934 1.481z"/><path d="m21.102 47.503-8.845 9.828 1.486 1.338 9-10c.102-.113.177-.248.218-.395l2-7-1.923-.549z"/></svg>